<svg>

    <def>

        <g id="i-1" viewBox="0 0 71 70" fill="none" xmlns="http://www.w3.org/2000/svg">
            <ellipse cx="35.8165" cy="35" rx="34.9096" ry="35" fill="#E0FF00"/>
            <path d="M46.4577 46.25H40.1347L43.2972 39.9088L46.4577 46.25ZM43.2972 36.875C43.1234 36.8749 42.953 36.9234 42.8052 37.015C42.6574 37.1065 42.5379 37.2376 42.4603 37.3934L37.7849 46.7684C37.7136 46.9114 37.68 47.0703 37.6872 47.2299C37.6944 47.3896 37.7422 47.5447 37.8261 47.6807C37.9099 47.8166 38.0271 47.9288 38.1663 48.0065C38.3056 48.0843 38.4624 48.1251 38.6218 48.125H47.9726C48.127 48.125 48.279 48.0867 48.415 48.0135C48.5511 47.9403 48.6669 47.8344 48.7522 47.7053C48.8375 47.5763 48.8896 47.428 48.9038 47.2739C48.9181 47.1197 48.894 46.9644 48.8338 46.8219L44.1341 37.3934C44.0564 37.2376 43.9369 37.1065 43.7891 37.015C43.6413 36.9234 43.4709 36.8749 43.2972 36.875Z" fill="black"/>
            <path d="M38.3843 41.375C37.132 42.052 35.7423 42.4335 34.3207 42.4906C32.8992 42.5477 31.4834 42.2788 30.1812 41.7044C28.879 41.1299 27.7247 40.2651 26.8063 39.1759C25.8878 38.0866 25.2294 36.8015 24.8812 35.4185C24.5329 34.0356 24.5041 32.5912 24.7968 31.1953C25.0895 29.7995 25.6961 28.489 26.5703 27.3637C27.4445 26.2385 28.5634 25.328 29.8416 24.7018C31.1198 24.0756 32.5237 23.75 33.9464 23.75V33.125L39.6476 38.8409L40.7884 36.5534C41.0202 36.0855 41.3781 35.692 41.8215 35.4175C42.2648 35.1429 42.776 34.9983 43.2972 35H44.999C45.3809 32.7281 45.0574 30.3933 44.0723 28.3118C43.0872 26.2302 41.488 24.5023 39.4912 23.3619C37.4944 22.2216 35.1963 21.7238 32.9081 21.9359C30.6198 22.148 28.4518 23.0598 26.6974 24.5479C24.943 26.036 23.6869 28.0286 23.0991 30.256C22.5114 32.4833 22.6204 34.8379 23.4113 37.0012C24.2022 39.1644 25.6368 41.0318 27.5211 42.3507C29.4054 43.6696 31.6484 44.3762 33.9464 44.375C35.0211 44.3737 36.0901 44.2168 37.12 43.9091L38.3843 41.375Z" fill="black"/>
        </g>

        <g id="i-2" viewBox="0 0 70 70" fill="none" xmlns="http://www.w3.org/2000/svg">
            <ellipse cx="34.9096" cy="35" rx="34.9096" ry="35" fill="black"/>
            <path d="M42.5 39.6875H44.375V44.375H42.5V39.6875ZM38.75 35H40.625V44.375H38.75V35ZM30.3125 44.375C29.0698 44.3735 27.8783 43.8792 26.9996 43.0004C26.1208 42.1217 25.6265 40.9302 25.625 39.6875H27.5C27.5 40.2438 27.665 40.7875 27.974 41.25C28.283 41.7126 28.7223 42.073 29.2362 42.2859C29.7501 42.4988 30.3156 42.5545 30.8612 42.446C31.4068 42.3374 31.9079 42.0696 32.3012 41.6762C32.6946 41.2829 32.9624 40.7818 33.071 40.2362C33.1795 39.6906 33.1238 39.1251 32.9109 38.6112C32.698 38.0973 32.3376 37.658 31.875 37.349C31.4125 37.0399 30.8688 36.875 30.3125 36.875V35C31.5557 35 32.748 35.4939 33.6271 36.3729C34.5061 37.252 35 38.4443 35 39.6875C35 40.9307 34.5061 42.123 33.6271 43.0021C32.748 43.8811 31.5557 44.375 30.3125 44.375Z" fill="white"/>
            <path d="M46.25 21.875H23.75C23.2529 21.8755 22.7762 22.0732 22.4247 22.4247C22.0732 22.7762 21.8755 23.2529 21.875 23.75V46.25C21.8755 46.7471 22.0732 47.2238 22.4247 47.5753C22.7762 47.9268 23.2529 48.1245 23.75 48.125H46.25C46.7471 48.1243 47.2235 47.9265 47.575 47.575C47.9265 47.2235 48.1243 46.7471 48.125 46.25V23.75C48.1245 23.2529 47.9268 22.7762 47.5753 22.4247C47.2238 22.0732 46.7471 21.8755 46.25 21.875ZM46.25 30.3125H33.125V23.75H46.25V30.3125ZM31.25 23.75V30.3125H23.75V23.75H31.25ZM23.75 46.25V32.1875H46.25L46.2519 46.25H23.75Z" fill="white"/>
        </g>

        <g id="i-3" viewBox="0 0 70 70" fill="none" xmlns="http://www.w3.org/2000/svg">
            <circle cx="35" cy="35" r="35" fill="black"/>
            <path d="M25.625 22.8125V47.1875H40.625V45.3125H27.5V24.6875H36.875V30.3125H42.5V32.1875H44.375V29L44.0938 28.7188L38.4688 23.0937L38.1875 22.8125H25.625ZM38.75 26L41.1875 28.4375H38.75V26ZM29.375 32.1875V34.0625H40.625V32.1875H29.375ZM45.3125 34.0625V35.9375C43.7188 36.2188 42.5 37.5312 42.5 39.2188C42.5 41.0938 43.9062 42.5 45.7812 42.5H46.7188C47.4688 42.5 48.125 43.1562 48.125 43.9062C48.125 44.6562 47.4688 45.3125 46.7188 45.3125H43.4375V47.1875H45.3125V49.0625H47.1875V47.1875C48.7812 46.9062 50 45.5938 50 43.9062C50 42.0312 48.5938 40.625 46.7188 40.625H45.7812C45.0312 40.625 44.375 39.9688 44.375 39.2188C44.375 38.4688 45.0312 37.8125 45.7812 37.8125H49.0625V35.9375H47.1875V34.0625H45.3125ZM29.375 36.875V38.75H35.9375V36.875H29.375ZM37.8125 36.875V38.75H40.625V36.875H37.8125ZM29.375 40.625V42.5H35.9375V40.625H29.375ZM37.8125 40.625V42.5H40.625V40.625H37.8125Z" fill="white"/>
        </g>

        <g id="play" viewBox="0 0 22 26" fill="none" xmlns="http://www.w3.org/2000/svg">
            <path d="M20.25 13L1.5 1.75V24.25L20.25 13Z" fill="currentColor" stroke="currentColor" stroke-width="2.5" stroke-linecap="round" stroke-linejoin="round"/>
        </g>

        <svg width="70" height="70" viewBox="0 0 70 70" fill="none" xmlns="http://www.w3.org/2000/svg">
            <rect width="70" height="70" rx="15" fill="black"/>
            <path d="M21.875 45.5H48.125V47.25H21.875V45.5ZM45.3125 30.625C45.5611 30.625 45.7996 30.5328 45.9754 30.3687C46.1512 30.2046 46.25 29.9821 46.25 29.75V27.125C46.2499 26.9452 46.1905 26.7697 46.0798 26.6226C45.969 26.4754 45.8124 26.3636 45.6313 26.3025L35.3188 22.8025C35.1128 22.733 34.8872 22.733 34.6812 22.8025L24.3687 26.3025C24.1876 26.3636 24.031 26.4754 23.9202 26.6226C23.8095 26.7697 23.7501 26.9452 23.75 27.125V29.75C23.75 29.9821 23.8488 30.2046 24.0246 30.3687C24.2004 30.5328 24.4389 30.625 24.6875 30.625H25.625V42H23.75V43.75H46.25V42H44.375V30.625H45.3125ZM25.625 27.7375L35 24.5525L44.375 27.7375V28.875H25.625V27.7375ZM36.875 42H33.125V30.625H36.875V42ZM27.5 30.625H31.25V42H27.5V30.625ZM42.5 42H38.75V30.625H42.5V42Z" fill="white"/>
        </svg>

    </def>

</svg>